<svg width="423" height="265" viewBox="0 0 423 265" fill="none" xmlns="http://www.w3.org/2000/svg">
<path d="M377.158 47.7173C352.104 47.7173 331.793 75.1394 331.793 108.963C331.793 142.787 352.104 170.209 377.158 170.209C402.213 170.209 422.524 142.787 422.524 108.963C422.524 75.1394 402.213 47.7173 377.158 47.7173ZM377.158 164.317C374.02 164.317 371.474 139.536 371.474 108.963C371.474 78.3895 374.02 53.6093 377.158 53.6093C380.297 53.6093 382.843 78.3895 382.843 108.963C382.843 139.536 380.297 164.317 377.158 164.317Z" fill="black"/>
<path d="M298.895 160.607C298.85 160.615 298.805 160.622 298.759 160.622C298.717 160.622 298.674 160.618 298.632 160.615C298.571 160.615 298.514 160.622 298.453 160.622V160.607C291.11 159.975 285.207 136.415 285.207 107.441C285.207 78.4666 291.273 54.2589 298.756 54.2589C301.329 54.2589 303.524 68.7914 304.359 89.1527L332.507 66.7142C323.956 55.0093 311.89 47.7114 298.514 47.7114C272.585 47.7114 251.568 75.1336 251.568 108.957C251.568 142.781 272.588 170.203 298.514 170.203C310.468 170.203 321.374 164.37 329.662 154.778L318.74 143.345C315.02 153.423 307.547 160.37 298.889 160.599L298.895 160.607Z" fill="black"/>
<path d="M154.339 170.035C149.972 156.956 147.087 134.466 147.087 108.912C147.087 83.3576 149.972 60.8678 154.339 47.7886H115.754C120.122 60.8678 123.007 83.3576 123.007 108.912C123.007 134.466 120.122 156.956 115.754 170.035H154.339Z" fill="black"/>
<path d="M135.045 39.0639C143.313 39.0639 150.016 30.3192 150.016 19.532C150.016 8.74476 143.313 0 135.045 0C126.776 0 120.073 8.74476 120.073 19.532C120.073 30.3192 126.776 39.0639 135.045 39.0639Z" fill="black"/>
<path d="M248.855 17C234.992 22.8209 223.852 36.0067 218.446 52.8139C212.892 49.5401 206.759 47.7157 200.308 47.7157C175.254 47.7157 154.943 75.1378 154.943 108.961C154.943 142.785 175.254 170.207 200.308 170.207C206.989 170.207 213.331 168.256 219.042 164.757L223.919 169.259V171.068C194.469 174.792 171.673 193.913 169.648 217.457C169.648 217.493 169.642 217.524 169.639 217.56C169.612 217.88 169.587 218.2 169.569 218.524C169.56 218.693 169.551 218.863 169.545 219.033C169.536 219.246 169.524 219.46 169.518 219.673C169.506 220.072 169.5 220.474 169.5 220.877C169.5 242.786 187.995 260.956 212.201 264.325C208.33 256.217 206.15 247.063 206.15 237.372C206.15 211.285 221.939 189.08 244.012 180.743V149.431L228.487 160.362L226.549 158.94C238.125 147.844 245.677 129.599 245.677 108.969C245.677 88.3394 238.088 70.0119 226.465 58.9191C233.057 53.7972 240.679 50.5274 248.858 49.7139V17H248.855ZM200.308 164.315C197.169 164.315 194.624 139.535 194.624 108.961C194.624 78.3879 197.169 53.6076 200.308 53.6076C203.447 53.6076 205.993 78.3879 205.993 108.961C205.993 139.535 203.447 164.315 200.308 164.315Z" fill="black"/>
<path d="M110.63 47.7896H79.7733C81.7076 57.7491 82.761 68.455 82.761 79.611C82.761 116.1 71.5127 147.835 54.949 164.093L52.4487 160.843C66.282 149.162 79.6704 118.533 79.6704 84.1643C79.6704 71.0258 78.8531 58.6495 75.811 47.7857H37.3622C39.2964 57.7452 40.3498 68.451 40.3498 79.6071C40.3498 116.096 29.1015 147.831 12.5378 164.089L10.0375 160.839C22.7569 151.025 37.2592 118.529 37.2592 84.1603C37.2592 71.0218 36.442 58.6456 33.3998 47.7817H0C5.07929 66.0145 7.96099 86.8141 7.96099 108.905C7.96099 130.996 5.07929 151.803 0 170.036H21.1466C31.3899 160.515 40.3316 148.178 47.4753 133.737C46.9426 146.997 45.0326 159.346 42.0812 170.036H62.0806C91.2063 147.621 110.858 105.217 110.858 56.5881C110.858 53.6303 110.779 50.6961 110.634 47.7896H110.63Z" fill="black"/>
</svg>
